<svg xmlns="http://www.w3.org/2000/svg" viewBox="0 0 256 256" fill="none">
  <!-- Background circle -->
  <circle cx="128" cy="108" r="72" fill="#0f172a"/>
  <!-- Triage cross/shield -->
  <path d="M128 52 L152 76 L152 100 L176 100 L176 116 L152 116 L152 140 L136 140 L136 164 L120 164 L120 140 L104 140 L104 116 L80 116 L80 100 L104 100 L104 76 L128 52Z" fill="#0891b2"/>
  <!-- Inner cross highlight -->
  <rect x="116" y="84" width="24" height="56" rx="2" fill="#ecfeff" opacity="0.9"/>
  <rect x="100" y="100" width="56" height="24" rx="2" fill="#ecfeff" opacity="0.9"/>
  <!-- Priority indicator dots (triage levels) -->
  <circle cx="92" cy="158" r="6" fill="#dc2626"/>
  <circle cx="112" cy="166" r="6" fill="#d97706"/>
  <circle cx="132" cy="170" r="6" fill="#0891b2"/>
  <circle cx="152" cy="166" r="6" fill="#059669"/>
  <!-- Wordmark -->
  <text x="128" y="210" text-anchor="middle" font-family="system-ui, -apple-system, sans-serif" font-size="32" font-weight="800" letter-spacing="4" fill="#0f172a">TRIAGE</text>
  <!-- Tagline -->
  <text x="128" y="232" text-anchor="middle" font-family="system-ui, -apple-system, sans-serif" font-size="11" font-weight="500" letter-spacing="2" fill="#475569">CLAIMS OPERATIONS</text>
</svg>
