<svg xmlns="http://www.w3.org/2000/svg" viewBox="0 0 240 220">
  <defs>
    <linearGradient id="hairPeace" x1="0" y1="0" x2="1" y2="1">
      <stop offset="0%" stop-color="#ff77c0"/>
      <stop offset="100%" stop-color="#d977ff"/>
    </linearGradient>
    <linearGradient id="shirtPeace" x1="0" y1="0" x2="1" y2="1">
      <stop offset="0%" stop-color="#22d3ee"/>
      <stop offset="100%" stop-color="#34d399"/>
    </linearGradient>
  </defs>
  <rect x="6" y="6" width="228" height="208" rx="26" fill="#f5f3ff" stroke="#c7d2fe" stroke-width="4"/>
  <path d="M120 30c32 0 62 30 62 68s-30 68-62 68-62-30-62-68 30-68 62-68z" fill="#0f172a" opacity="0.1"/>
  <path d="M70 74c10-28 34-54 50-54s40 26 50 54c-12 20-30 32-50 32s-38-12-50-32z" fill="url(#hairPeace)"/>
  <circle cx="120" cy="108" r="38" fill="#fde68a"/>
  <ellipse cx="104" cy="104" rx="7" ry="9" fill="#1f2937"/>
  <ellipse cx="136" cy="104" rx="7" ry="9" fill="#1f2937"/>
  <path d="M106 134c8 6 20 6 28 0" fill="none" stroke="#1f2937" stroke-width="4" stroke-linecap="round"/>
  <path d="M86 144h68l14 40H72z" fill="url(#shirtPeace)"/>
  <path d="M170 136c6 0 10 6 10 12 0 10-8 24-18 28l-10-30c6-4 10-10 18-10z" fill="#fde68a"/>
  <path d="M170 138c-6 0-10 4-14 8l12 26c10-6 14-16 14-22 0-8-4-12-12-12z" fill="#fef3c7"/>
  <path d="M178 138c2 0 6 2 6 8 0 6-4 14-12 18l-6-16c2-6 6-10 12-10z" fill="#fde68a"/>
  <path d="M120 34l-10 6v10h20V40z" fill="#0f172a"/>
  <path d="M64 178h112" stroke="#1f2937" stroke-width="6" stroke-linecap="round"/>
</svg>
